<?xml version="1.0" encoding="UTF-8"?>
<svg width="3300px" height="2200px" viewBox="0 0 3300 2200" version="1.1" xmlns="http://www.w3.org/2000/svg" xmlns:xlink="http://www.w3.org/1999/xlink">
    <title>new</title>
    <g id="Page-1" stroke="none" stroke-width="1" fill="none" fill-rule="evenodd">
        <g id="custom.book">
            <g id="Notes">
                <rect id="artboard" fill="#FFFFFF" fill-rule="nonzero" x="0" y="0" width="3300" height="2200"></rect>
                <line x1="263" y1="292" x2="3036" y2="292" id="Path" stroke="#000000" stroke-width="0.5"></line>
                <text id="Weight/Scale-Variations" fill="#000000" fill-rule="nonzero" font-family="Helvetica" font-size="13" font-weight="normal">
                    <tspan x="263" y="322">Weight/Scale Variations</tspan>
                </text>
                <text id="Ultralight" fill="#000000" fill-rule="nonzero" font-family="Helvetica" font-size="13" font-weight="normal">
                    <tspan x="533.711" y="322">Ultralight</tspan>
                </text>
                <text id="Thin" fill="#000000" fill-rule="nonzero" font-family="Helvetica" font-size="13" font-weight="normal">
                    <tspan x="843.422" y="322">Thin</tspan>
                </text>
                <text id="Light" fill="#000000" fill-rule="nonzero" font-family="Helvetica" font-size="13" font-weight="normal">
                    <tspan x="1138.63" y="322">Light</tspan>
                </text>
                <text id="Regular" fill="#000000" fill-rule="nonzero" font-family="Helvetica" font-size="13" font-weight="normal">
                    <tspan x="1426.84" y="322">Regular</tspan>
                </text>
                <text id="Medium" fill="#000000" fill-rule="nonzero" font-family="Helvetica" font-size="13" font-weight="normal">
                    <tspan x="1723.06" y="322">Medium</tspan>
                </text>
                <text id="Semibold" fill="#000000" fill-rule="nonzero" font-family="Helvetica" font-size="13" font-weight="normal">
                    <tspan x="2015.77" y="322">Semibold</tspan>
                </text>
                <text id="Bold" fill="#000000" fill-rule="nonzero" font-family="Helvetica" font-size="13" font-weight="normal">
                    <tspan x="2326.48" y="322">Bold</tspan>
                </text>
                <text id="Heavy" fill="#000000" fill-rule="nonzero" font-family="Helvetica" font-size="13" font-weight="normal">
                    <tspan x="2618.19" y="322">Heavy</tspan>
                </text>
                <text id="Black" fill="#000000" fill-rule="nonzero" font-family="Helvetica" font-size="13" font-weight="normal">
                    <tspan x="2917.4" y="322">Black</tspan>
                </text>
                <line x1="263" y1="1903" x2="3036" y2="1903" id="Path" stroke="#000000" stroke-width="0.5"></line>
                <g id="Group" transform="translate(264.367190, 1918.068400)" fill="#000000" fill-rule="nonzero">
                    <path d="M7.88086,15.761678 C12.18751,15.761678 15.77151,12.18746 15.77151,7.88082 C15.77151,3.5742 12.17771,0 7.87109,0 C3.57422,0 -8.8817842e-16,3.5742 -8.8817842e-16,7.88082 C-8.8817842e-16,12.18746 3.58398,15.761678 7.88086,15.761678 Z M7.88086,14.277303 C4.33593,14.277303 1.5039,11.43551 1.5039,7.88082 C1.5039,4.3261 4.32617,1.4843 7.87109,1.4843 C11.42581,1.4843 14.27731,4.3261 14.27731,7.88082 C14.27731,11.43551 11.43551,14.277303 7.88086,14.277303 Z M4.28711,7.88082 C4.28711,8.31051 4.58984,8.60348 5.03906,8.60348 L7.13867,8.60348 L7.13867,10.72262 C7.13867,11.16207 7.43164,11.4648 7.86133,11.4648 C8.31054,11.4648 8.60351,11.16207 8.60351,10.72262 L8.60351,8.60348 L10.72261,8.60348 C11.16211,8.60348 11.46481,8.31051 11.46481,7.88082 C11.46481,7.44137 11.16211,7.13863 10.72261,7.13863 L8.60351,7.13863 L8.60351,5.02926 C8.60351,4.58 8.31054,4.2773 7.86133,4.2773 C7.43164,4.2773 7.13867,4.58 7.13867,5.02926 L7.13867,7.13863 L5.03906,7.13863 C4.58984,7.13863 4.28711,7.44137 4.28711,7.88082 Z" id="Shape"></path>
                </g>
                <g id="Group" transform="translate(283.615050, 1915.988300)" fill="#000000" fill-rule="nonzero">
                    <path d="M9.96095,19.92186 C15.41015,19.92186 19.92185,15.40037 19.92185,9.96092 C19.92185,4.5117 15.40035,0 9.95115,0 C4.51172,0 8.8817842e-16,4.5117 8.8817842e-16,9.96092 C8.8817842e-16,15.40037 4.52148,19.92186 9.96095,19.92186 Z M9.96095,18.2617 C5.35156,18.2617 1.66992,14.57029 1.66992,9.96092 C1.66992,5.3515 5.34179,1.6601 9.95115,1.6601 C14.56055,1.6601 18.26175,5.3515 18.26175,9.96092 C18.26175,14.57029 14.57035,18.2617 9.96095,18.2617 Z M5.42968,9.96092 C5.42968,10.43943 5.76172,10.7617 6.25976,10.7617 L9.13085,10.7617 L9.13085,13.64256 C9.13085,14.13084 9.46285,14.47264 9.94145,14.47264 C10.42965,14.47264 10.77145,14.14061 10.77145,13.64256 L10.77145,10.7617 L13.65235,10.7617 C14.14065,10.7617 14.48245,10.43943 14.48245,9.96092 C14.48245,9.47264 14.14065,9.13084 13.65235,9.13084 L10.77145,9.13084 L10.77145,6.2597 C10.77145,5.7617 10.42965,5.4199 9.94145,5.4199 C9.46285,5.4199 9.13085,5.7617 9.13085,6.2597 L9.13085,9.13084 L6.25976,9.13084 C5.76172,9.13084 5.42968,9.47264 5.42968,9.96092 Z" id="Shape"></path>
                </g>
                <g id="Group" transform="translate(307.901860, 1913.224600)" fill="#000000" fill-rule="nonzero">
                    <path d="M12.71484,25.43946 C19.67774,25.43946 25.43944,19.6777438 25.43944,12.72462 C25.43944,5.7617 19.66794,0 12.70504,0 C5.75195,0 0,5.7617 0,12.72462 C0,19.6777438 5.76172,25.43946 12.71484,25.43946 Z M12.71484,23.62306 C6.67969,23.62306 1.82617,18.75978 1.82617,12.72462 C1.82617,6.6797 6.66992,1.8262 12.70504,1.8262 C18.75004,1.8262 23.61324,6.6797 23.61324,12.72462 C23.61324,18.75978 18.75974,23.62306 12.71484,23.62306 Z M6.94336,12.72462 C6.94336,13.2422 7.31445,13.60352 7.86134,13.60352 L11.80664,13.60352 L11.80664,17.5586 C11.80664,18.09571 12.17774,18.47657 12.69534,18.47657 C13.23244,18.47657 13.60354,18.10548 13.60354,17.5586 L13.60354,13.60352 L17.55864,13.60352 C18.09574,13.60352 18.47654,13.2422 18.47654,12.72462 C18.47654,12.17774 18.10544,11.80665 17.55864,11.80665 L13.60354,11.80665 L13.60354,7.8613 C13.60354,7.3145 13.23244,6.9336 12.69534,6.9336 C12.17774,6.9336 11.80664,7.3145 11.80664,7.8613 L11.80664,11.80665 L7.86134,11.80665 C7.31445,11.80665 6.94336,12.17774 6.94336,12.72462 Z" id="Shape"></path>
                </g>
                <text id="Design-Variations" fill="#000000" fill-rule="nonzero" font-family="Helvetica" font-size="13" font-weight="normal">
                    <tspan x="263" y="1953">Design Variations</tspan>
                </text>
                <text id="Symbols-are-supported-in-up-to-nine-weights-and-three-scales." fill="#000000" fill-rule="nonzero" font-family="Helvetica" font-size="13" font-weight="normal">
                    <tspan x="263" y="1971">Symbols are supported in up to nine weights and three scales.</tspan>
                </text>
                <text id="For-optimal-layout-with-text-and-other-symbols,-vertically-align" fill="#000000" fill-rule="nonzero" font-family="Helvetica" font-size="13" font-weight="normal">
                    <tspan x="263" y="1989">For optimal layout with text and other symbols, vertically align</tspan>
                </text>
                <text id="symbols-with-the-adjacent-text." fill="#000000" fill-rule="nonzero" font-family="Helvetica" font-size="13" font-weight="normal">
                    <tspan x="263" y="2007">symbols with the adjacent text.</tspan>
                </text>
                <line x1="776" y1="1919" x2="776" y2="1933" id="Path" stroke="#00AEEF" stroke-width="0.5"></line>
                <g id="Group" transform="translate(778.490230, 1918.732400)" fill="#000000" fill-rule="nonzero">
                    <path d="M0.82032,14.42385 C1.33789,14.42385 1.5918,14.2285375 1.77735,13.681662 L3.03711,10.2344 L8.79887,10.2344 L10.05857,13.681662 C10.24417,14.2285375 10.49807,14.42385 11.00587,14.42385 C11.52347,14.42385 11.85547,14.11135 11.85547,13.623069 C11.85547,13.457053 11.82617,13.300803 11.74807,13.09572 L7.16797,0.8985 C6.94336,0.3028 6.54297,0 5.91797,0 C5.3125,0 4.90235,0.293 4.6875,0.8887 L0.10743,13.10549 C0.0293,13.310569 -4.4408921e-16,13.466819 -4.4408921e-16,13.632834 C-4.4408921e-16,14.121116 0.3125,14.42385 0.82032,14.42385 Z M3.51563,8.75002 L5.88868,2.1778 L5.9375,2.1778 L8.31057,8.75002 L3.51563,8.75002 Z" id="Shape"></path>
                </g>
                <line x1="793.197" y1="1919" x2="793.197" y2="1933" id="Path" stroke="#00AEEF" stroke-width="0.5"></line>
                <text id="Margins" fill="#000000" fill-rule="nonzero" font-family="Helvetica" font-size="13" font-weight="normal">
                    <tspan x="776" y="1953">Margins</tspan>
                </text>
                <text id="Leading-and-trailing-margins-on-the-left-and-right-side-of-each-symbol" fill="#000000" fill-rule="nonzero" font-family="Helvetica" font-size="13" font-weight="normal">
                    <tspan x="776" y="1971">Leading and trailing margins on the left and right side of each symbol</tspan>
                </text>
                <text id="can-be-adjusted-by-modifying-the-x-location-of-the-margin-guidelines." fill="#000000" fill-rule="nonzero" font-family="Helvetica" font-size="13" font-weight="normal">
                    <tspan x="776" y="1989">can be adjusted by modifying the x-location of the margin guidelines.</tspan>
                </text>
                <text id="Modifications-are-automatically-applied-proportionally-to-all" fill="#000000" fill-rule="nonzero" font-family="Helvetica" font-size="13" font-weight="normal">
                    <tspan x="776" y="2007">Modifications are automatically applied proportionally to all</tspan>
                </text>
                <text id="scales-and-weights." fill="#000000" fill-rule="nonzero" font-family="Helvetica" font-size="13" font-weight="normal">
                    <tspan x="776" y="2025">scales and weights.</tspan>
                </text>
                <g id="Group" transform="translate(1291.248126, 1914.517396)" fill="#000000" fill-rule="nonzero">
                    <path d="M0.593673634,20.347834 L2.29289363,22.056824 C3.15226363,22.925964 4.13859363,22.867374 5.06632363,21.841984 L15.7596736,10.054874 L14.7928736,9.07830404 L4.17765363,20.757994 C3.82609363,21.158384 3.49406363,21.256044 3.02531363,20.787294 L1.85343363,19.625184 C1.38468363,19.166198 1.49210363,18.824401 1.89249363,18.4630728 L13.3670736,7.66230404 L12.3905736,6.69550404 L0.798753634,17.584166 C-0.187576366,18.5021352 -0.265706366,19.478698 0.593673634,20.347834 Z M7.00968363,2.15450404 C6.58976363,2.56460404 6.56046363,3.14080404 6.79484363,3.53140404 C7.02921363,3.89280404 7.48820363,4.12710404 8.13277363,3.96110404 C9.59757363,3.61930404 11.1209736,3.56070404 12.5467736,4.49820404 L11.9608736,5.95330404 C11.6190736,6.78340404 11.7948736,7.36930404 12.3319736,7.91620404 L14.6268736,10.230654 C15.1151736,10.718934 15.5252736,10.738464 16.0916736,10.640804 L17.1561736,10.445494 L17.8202736,11.119324 L17.7811736,11.675964 C17.7420736,12.174014 17.8690736,12.554874 18.3573736,13.033384 L19.1190736,13.775574 C19.5975736,14.254084 20.2127736,14.283384 20.6815736,13.814634 L23.5916736,10.894714 C24.0604736,10.425964 24.0409736,9.83026404 23.5623736,9.35174404 L22.7909736,8.59002404 C22.3123736,8.11150404 21.9413736,7.95530404 21.4627736,7.99430404 L20.8866736,8.04310404 L20.2420736,7.40840404 L20.4862736,6.28530404 C20.6131736,5.71890404 20.4569736,5.27950404 19.8709736,4.69350404 L17.6737736,2.50600404 C14.3338736,-0.814295964 9.90027363,-0.736195964 7.00968363,2.15450404 Z M8.50387363,2.52560404 C10.9354736,0.748204036 14.2264736,1.05100404 16.4530736,3.27750404 L18.8846736,5.68960404 C19.1190736,5.92400404 19.1580736,6.10960404 19.0897736,6.45140404 L18.7674736,7.93570404 L20.2713736,9.42010404 L21.2577736,9.36151404 C21.5116736,9.35174404 21.5897736,9.37127404 21.7850736,9.56658404 L22.3612736,10.142764 L19.9198736,12.584164 L19.3436736,12.007994 C19.1483736,11.812684 19.1190736,11.734554 19.1288736,11.470884 L19.1971736,10.494324 L17.7030736,9.00994404 L16.1795736,9.26385404 C15.8573736,9.33221404 15.7108736,9.30291404 15.4666736,9.06854404 L13.4647736,7.06660404 C13.2108736,6.83220404 13.1815736,6.66620404 13.3377736,6.29510404 L14.2166736,4.20530404 C12.6541736,2.75020404 10.6229736,2.12520404 8.59167363,2.72090404 C8.43547363,2.75990404 8.37687363,2.63300404 8.50387363,2.52560404 Z" id="Shape"></path>
                </g>
                <text id="Exporting" fill="#000000" fill-rule="nonzero" font-family="Helvetica" font-size="13" font-weight="normal">
                    <tspan x="1289" y="1953">Exporting</tspan>
                </text>
                <text id="Symbols-should-be-outlined-when-exporting-to-ensure-the" fill="#000000" fill-rule="nonzero" font-family="Helvetica" font-size="13" font-weight="normal">
                    <tspan x="1289" y="1971">Symbols should be outlined when exporting to ensure the</tspan>
                </text>
                <text id="design-is-preserved-when-submitting-to-Xcode." fill="#000000" fill-rule="nonzero" font-family="Helvetica" font-size="13" font-weight="normal">
                    <tspan x="1289" y="1989">design is preserved when submitting to Xcode.</tspan>
                </text>
                <text id="template-version" fill="#000000" fill-rule="nonzero" font-family="Helvetica" font-size="13" font-weight="normal">
                    <tspan x="2952" y="1933">Template v.4.0</tspan>
                </text>
                <text id="Requires-Xcode-14-or-greater" fill="#000000" fill-rule="nonzero" font-family="Helvetica" font-size="13" font-weight="normal">
                    <tspan x="2865" y="1951">Requires Xcode 14 or greater</tspan>
                </text>
                <text id="descriptive-name" fill="#000000" fill-rule="nonzero" font-family="Helvetica" font-size="13" font-weight="normal">
                    <tspan x="2867" y="1969">Generated from custom.book</tspan>
                </text>
                <text id="Typeset-at-100-points" fill="#000000" fill-rule="nonzero" font-family="Helvetica" font-size="13" font-weight="normal">
                    <tspan x="2912" y="1987">Typeset at 100 points</tspan>
                </text>
                <text id="Small" fill="#000000" fill-rule="nonzero" font-family="Helvetica" font-size="13" font-weight="normal">
                    <tspan x="263" y="726">Small</tspan>
                </text>
                <text id="Medium" fill="#000000" fill-rule="nonzero" font-family="Helvetica" font-size="13" font-weight="normal">
                    <tspan x="263" y="1156">Medium</tspan>
                </text>
                <text id="Large" fill="#000000" fill-rule="nonzero" font-family="Helvetica" font-size="13" font-weight="normal">
                    <tspan x="263" y="1586">Large</tspan>
                </text>
            </g>
            <g id="Guides" transform="translate(263.000000, 625.041000)">
                <g id="H-reference" transform="translate(76.993654, 0.500000)" fill="#27AAE1" fill-rule="nonzero">
                    <path d="M0,70.459 L2.644096,70.459 L28.334446,3.3267 L29.036646,3.3267 L29.036646,0 L27.128946,0 L0,70.459 Z M10.694846,45.9791 L45.987846,45.9791 L45.237846,43.7305 L11.444846,43.7305 L10.694846,45.9791 Z M54.125946,70.459 L56.770046,70.459 L29.644546,0 L28.438946,0 L28.438946,3.3267 L54.125946,70.459 Z" id="Shape"></path>
                </g>
                <line x1="0" y1="70.959" x2="2773" y2="70.959" id="Baseline-S" stroke="#27AAE1" stroke-width="0.5"></line>
                <line x1="0" y1="0.5" x2="2773" y2="0.5" id="Capline-S" stroke="#27AAE1" stroke-width="0.5"></line>
                <g id="H-reference" transform="translate(76.993654, 430.500000)" fill="#27AAE1" fill-rule="nonzero">
                    <path d="M0,70.459 L2.644096,70.459 L28.334446,3.3267 L29.036646,3.3267 L29.036646,0 L27.128946,0 L0,70.459 Z M10.694846,45.9791 L45.987846,45.9791 L45.237846,43.7305 L11.444846,43.7305 L10.694846,45.9791 Z M54.125946,70.459 L56.770046,70.459 L29.644546,0 L28.438946,0 L28.438946,3.3267 L54.125946,70.459 Z" id="Shape"></path>
                </g>
                <line x1="0" y1="500.959" x2="2773" y2="500.959" id="Baseline-M" stroke="#27AAE1" stroke-width="0.5"></line>
                <line x1="0" y1="430.499" x2="2773" y2="430.499" id="Capline-M" stroke="#27AAE1" stroke-width="0.5"></line>
                <g id="H-reference" transform="translate(76.993654, 860.500000)" fill="#27AAE1" fill-rule="nonzero">
                    <path d="M0,70.459 L2.644096,70.459 L28.334446,3.3267 L29.036646,3.3267 L29.036646,0 L27.128946,0 L0,70.459 Z M10.694846,45.9791 L45.987846,45.9791 L45.237846,43.7305 L11.444846,43.7305 L10.694846,45.9791 Z M54.125946,70.459 L56.770046,70.459 L29.644546,0 L28.438946,0 L28.438946,3.3267 L54.125946,70.459 Z" id="Shape"></path>
                </g>
                <line x1="0" y1="930.959" x2="2773" y2="930.959" id="Baseline-L" stroke="#27AAE1" stroke-width="0.5"></line>
                <line x1="0" y1="860.499" x2="2773" y2="860.499" id="Capline-L" stroke="#27AAE1" stroke-width="0.5"></line>
                <line x1="1120.18" y1="405.749" x2="1120.18" y2="525.079" id="left-margin-Regular-M" stroke="#00AEEF" stroke-width="0.5"></line>
                <line x1="1253.51" y1="405.749" x2="1253.51" y2="525.079" id="right-margin-Regular-M" stroke="#00AEEF" stroke-width="0.5"></line>
            </g>
            <g id="Symbols" transform="translate(493.522000, 620.951200)" fill="#000000" fill-rule="nonzero">
                <g id="Black-L" transform="translate(2364.992000, 835.960400)">
                    <path d="M-3.55271368e-15,111.4244 C-3.55271368e-15,119.1703 5.1776,123.9108 12.4292,123.9108 C15.576,123.9108 17.8194,122.676 22.0036,120.3007 C28.7777,116.1938 35.7198,114.0429 42.5653,114.1221 C50.4724,114.1805 57.7539,116.9916 63.8803,122.5182 C67.5833,126.0235 71.0377,127.5606 74.8893,127.5606 C78.741,127.5606 82.2174,126.0223 85.898,122.5182 C92.026,116.994 99.306,114.1805 107.213,114.1221 C114.059,114.0429 121.022,116.1938 127.775,120.3007 C131.958,122.676 134.203,123.9108 137.369,123.9108 C144.601,123.9108 149.778,119.1703 149.778,111.4244 L149.778,25.8624 C149.778,23.9968 149.347,22.2213 148.528,20.7473 C141.671,8.591 125.207,0 106.896,0 C94.475,0 82.5447,4.2523 74.8893,11.0544 C67.2341,4.2523 55.3022,0 42.8823,0 C24.5924,0 8.1077,8.591 1.2506,20.7473 C0.432,22.2213 -3.55271368e-15,23.9968 -3.55271368e-15,25.8624 L-3.55271368e-15,111.4244 Z M19.981,98.936122 L19.981,29.0422 C24.5861,23.5744 33.521,19.9797 42.8823,19.9797 C52.4704,19.9797 61.1008,23.5952 64.8988,29.1399 L64.8988,99.445858 C58.572,96.12434 50.6655,94.12141 42.8823,94.12141 C34.6325,94.12141 26.5127,95.85277 19.981,98.936122 Z M84.88,99.445858 L84.88,29.1399 C88.678,23.5952 97.328,19.9797 106.896,19.9797 C116.257,19.9797 125.213,23.5744 129.798,29.0422 L129.798,98.936122 C123.287,95.85277 115.146,94.12141 106.896,94.12141 C99.113,94.12141 91.226,96.12434 84.88,99.445858 Z" id="Shape"></path>
                </g>
                <g id="Heavy-L" transform="translate(2069.522000, 837.329300)">
                    <path d="M-3.55271368e-15,110.2067 C-3.55271368e-15,117.2377 4.6977,121.3016 11.0559,121.3016 C13.9307,121.3016 16.0488,120.0967 19.783,117.9397 C26.5862,113.6507 33.9614,111.2918 41.3427,111.3666 C49.5885,111.4112 57.3279,114.3978 63.6831,120.2465 C67.1162,123.4809 70.1928,124.836 73.649,124.836 C77.1053,124.836 80.2177,123.4753 83.6151,120.2465 C89.976,114.409 97.71,111.4112 105.955,111.3666 C113.337,111.2918 120.742,113.6507 127.515,117.9397 C131.244,120.0967 133.367,121.3016 136.267,121.3016 C142.6,121.3016 147.298,117.2377 147.298,110.2067 L147.298,24.6624 C147.298,22.981 146.945,21.4249 146.167,20.0425 C139.595,8.4724 123.685,0 105.656,0 C92.898,0 80.9972,4.5529 73.649,11.6087 C66.3009,4.5529 54.3945,0 41.642,0 C23.6429,0 7.703,8.4724 1.131,20.0425 C0.3537,21.4249 -3.55271368e-15,22.981 -3.55271368e-15,24.6624 L-3.55271368e-15,110.2067 Z M17.5004,99.43998 L17.5004,27.3823 C22.2379,21.4313 31.7154,17.4947 41.642,17.4947 C51.8367,17.4947 60.9116,21.4615 64.8988,27.5704 L64.8988,100.10415 C58.5748,96.34264 50.1295,93.84159 41.642,93.84159 C32.6796,93.84159 24.0568,95.932 17.5004,99.43998 Z M82.3993,100.10415 L82.3993,27.5704 C86.387,21.4615 95.486,17.4947 105.656,17.4947 C115.577,17.4947 125.09,21.4313 129.798,27.3823 L129.798,99.43998 C123.272,95.932 114.619,93.84159 105.656,93.84159 C97.169,93.84159 88.748,96.34264 82.3993,100.10415 Z" id="Shape"></path>
                </g>
                <g id="Bold-L" transform="translate(1774.332000, 839.072100)">
                    <path d="M-3.55271368e-15,108.7081 C-3.55271368e-15,114.7734 4.0538,118.0295 9.3055,118.0295 C11.8198,118.0295 13.747,116.8927 16.9054,115.0122 C23.7172,110.4258 31.6973,107.7834 39.8438,107.8506 C48.5569,107.8798 56.9021,111.1188 63.5266,117.3894 C66.5697,120.2485 69.1701,121.3733 72.1197,121.3733 C75.0693,121.3733 77.721,120.2353 80.7128,117.3894 C87.351,111.1452 95.683,107.8798 104.396,107.8506 C112.542,107.7834 120.56,110.4258 127.334,115.0122 C130.479,116.8927 132.42,118.0295 134.959,118.0295 C140.186,118.0295 144.239,114.7734 144.239,108.7081 L144.239,23.1942 C144.239,21.7134 143.971,20.4189 143.239,19.1443 C136.984,8.2592 121.721,0 104.127,0 C90.946,0 79.1136,4.9293 72.1197,12.3225 C65.1258,4.9293 53.28,0 40.1126,0 C22.5567,0 7.2557,8.2592 0.9998,19.1443 C0.2688,20.4189 -3.55271368e-15,21.7134 -3.55271368e-15,23.1942 L-3.55271368e-15,108.7081 Z M14.4418,99.95807 L14.4418,25.3379 C19.3407,18.7877 29.4868,14.4285 40.1126,14.4285 C51.0529,14.4285 60.6437,18.8257 64.8988,25.6487 L64.8988,100.82178 C58.6047,96.552009 49.5058,93.38401 40.1126,93.38401 C30.2219,93.38401 20.9991,95.9349473 14.4418,99.95807 Z M79.3406,100.82178 L79.3406,25.6487 C83.5958,18.8257 93.211,14.4285 104.127,14.4285 C114.739,14.4285 124.937,18.7877 129.798,25.3379 L129.798,99.95807 C123.278,95.9349473 114.018,93.38401 104.127,93.38401 C94.734,93.38401 85.659,96.552009 79.3406,100.82178 Z" id="Shape"></path>
                </g>
                <g id="Semibold-L" transform="translate(1478.682000, 840.273600)">
                    <path d="M-3.55271368e-15,107.6748 C-3.55271368e-15,113.0744 3.6099,115.7737 8.0987,115.7737 C10.3646,115.7737 12.1602,114.6839 14.9217,112.994 C21.7394,108.2025 30.1365,105.3646 38.8105,105.4266 C47.8458,105.4452 56.6085,108.8582 63.4188,115.4197 C66.1929,118.0201 68.4651,118.9861 71.0654,118.9861 C73.6658,118.9861 75.9998,118.0016 78.712,115.4197 C85.541,108.8952 94.285,105.4452 103.32,105.4266 C111.994,105.3646 120.435,108.2025 127.209,112.994 C129.952,114.6839 131.766,115.7737 134.057,115.7737 C138.521,115.7737 142.131,113.0744 142.131,107.6748 L142.131,22.182 C142.131,20.8395 141.921,19.7253 141.221,18.525 C135.184,8.1123 120.366,0 103.073,0 C89.601,0 77.8151,5.1887 71.0654,12.8145 C64.3157,5.1887 52.5117,0 39.0583,0 C21.8078,0 6.9473,8.1123 0.9094,18.525 C0.2103,19.7253 -3.55271368e-15,20.8395 -3.55271368e-15,22.182 L-3.55271368e-15,107.6748 Z M12.3331,100.31522 L12.3331,23.9286 C17.3434,16.9651 27.9504,12.3146 39.0583,12.3146 C50.5126,12.3146 60.459,17.0085 64.8988,24.3239 L64.8988,101.31648 C58.6253,96.69632 49.0759,93.06853 39.0583,93.06853 C28.5277,93.06853 18.8911,95.93695 12.3331,100.31522 Z M77.232,101.31648 L77.232,24.3239 C81.6719,17.0085 91.643,12.3146 103.073,12.3146 C114.162,12.3146 124.831,16.9651 129.798,23.9286 L129.798,100.31522 C123.283,95.93695 113.603,93.06853 103.073,93.06853 C93.055,93.06853 83.5304,96.69632 77.232,101.31648 Z" id="Shape"></path>
                </g>
                <g id="Medium-L" transform="translate(1182.772000, 841.184600)">
                    <path d="M-3.55271368e-15,106.8915 C-3.55271368e-15,111.7862 3.2733,114.0633 7.1837,114.0633 C9.2612,114.0633 10.957,113.0092 13.4175,111.4637 C20.2396,106.5167 28.953,103.5307 38.027,103.58865 C47.3065,103.59917 56.386,107.1442 63.3371,113.9262 C65.9072,116.3305 67.9305,117.176 70.266,117.176 C72.6015,117.176 74.6947,116.308 77.1949,113.9262 C84.169,107.1891 93.225,103.59917 102.505,103.58865 C111.579,103.5307 120.34,106.5167 127.115,111.4637 C129.553,113.0092 131.271,114.0633 133.373,114.0633 C137.259,114.0633 140.532,111.7862 140.532,106.8915 L140.532,21.4145 C140.532,20.177 140.366,19.1995 139.691,18.0555 C133.819,8.0009 119.339,0 102.273,0 C88.58,0 76.8305,5.3855 70.266,13.1876 C63.7015,5.3855 51.9291,0 38.2589,0 C21.24,0 6.7135,8.0009 0.8409,18.0555 C0.1659,19.1995 -3.55271368e-15,20.177 -3.55271368e-15,21.4145 L-3.55271368e-15,106.8915 Z M10.7343,100.58605 L10.7343,22.86 C15.8289,15.5833 26.7855,10.7118 38.2589,10.7118 C50.1029,10.7118 60.319,15.6307 64.8988,23.3194 L64.8988,101.69162 C58.641,96.80577 48.7499,92.82934 38.2589,92.82934 C27.243,92.82934 17.2928,95.9385 10.7343,100.58605 Z M75.6332,101.69162 L75.6332,23.3194 C80.2131,15.6307 90.454,10.7118 102.273,10.7118 C113.724,10.7118 124.751,15.5833 129.798,22.86 L129.798,100.58605 C123.287,95.9385 113.289,92.82934 102.273,92.82934 C91.782,92.82934 81.916,96.80577 75.6332,101.69162 Z" id="Shape"></path>
                </g>
                <g id="Regular-L" transform="translate(887.102000, 842.372800)">
                    <path d="M-3.55271368e-15,105.8697 C-3.55271368e-15,110.1061 2.8343,111.8323 5.9903,111.8323 C7.822,111.8323 9.3876,110.8247 11.4555,109.4678 C18.2835,104.318 27.4093,101.13866 37.0051,101.19141 C46.6031,101.19141 56.0956,104.9086 63.2304,111.9783 C65.5345,114.1267 67.2332,114.8151 69.2232,114.8151 C71.2134,114.8151 72.9924,114.099 75.2161,111.9783 C82.3786,104.9639 91.843,101.19141 101.442,101.19141 C111.037,101.13866 120.216,104.318 126.991,109.4678 C129.031,110.8247 130.625,111.8323 132.481,111.8323 C135.612,111.8323 138.447,110.1061 138.447,105.8697 L138.447,20.4135 C138.447,19.3128 138.338,18.5136 137.695,17.4431 C132.038,7.8557 118,0 101.23,0 C87.25,0 75.5462,5.6422 69.2232,13.6743 C62.9003,5.6422 51.1692,0 37.2162,0 C20.4994,0 6.4084,7.8557 0.7515,17.4431 C0.1081,18.5136 -3.55271368e-15,19.3128 -3.55271368e-15,20.4135 L-3.55271368e-15,105.8697 Z M8.6489,100.93937 L8.6489,21.4662 C13.8536,13.7809 25.266,8.6212 37.2162,8.6212 C49.5685,8.6212 60.1363,13.8336 64.8988,22.0092 L64.8988,102.18098 C58.6613,96.9486 48.3247,92.517423 37.2162,92.517423 C25.5673,92.517423 15.208,95.94058 8.6489,100.93937 Z M73.5477,102.18098 L73.5477,22.0092 C78.3103,13.8336 88.903,8.6212 101.23,8.6212 C113.153,8.6212 124.646,13.7809 129.798,21.4662 L129.798,100.93937 C123.291,95.94058 112.879,92.517423 101.23,92.517423 C90.122,92.517423 79.8103,96.9486 73.5477,102.18098 Z" id="Shape"></path>
                </g>
                <g id="Light-L" transform="translate(591.402000, 843.880600)">
                    <path d="M-3.55271368e-15,104.8963 C-3.55271368e-15,107.9494 2.0709,109.313 4.4635,109.313 C5.8944,109.313 7.0973,108.5535 8.65,107.4256 C15.3062,101.6078 25.2908,98.06588 36.0699,98.09954 C46.2978,98.09954 56.4582,102.2175 63.6884,109.7261 C65.3627,111.3592 66.6797,111.8569 68.2117,111.8569 C69.7438,111.8569 71.1411,111.3125 72.735,109.7261 C80.012,102.311 90.126,98.09954 100.354,98.09954 C111.133,98.06588 121.151,101.6078 127.774,107.4256 C129.28,108.5535 130.529,109.313 131.947,109.313 C134.353,109.313 136.424,107.9494 136.424,104.8963 L136.424,19.5165 C136.424,18.3776 136.296,17.6929 135.653,16.6605 C129.977,7.2831 116.13,0 100.219,0 C85.914,0 74.4584,5.9284 68.2117,14.3423 C61.9651,5.9284 50.4631,0 36.2046,0 C20.3277,0 6.4466,7.2831 0.7705,16.6605 C0.1271,17.6929 -3.55271368e-15,18.3776 -3.55271368e-15,19.5165 L-3.55271368e-15,104.8963 Z M6.6258,100.61486 L6.6258,20.1302 C11.926,12.0249 23.7773,6.579 36.2046,6.579 C49.0341,6.579 59.7355,12.0587 64.8988,20.8258 L64.8988,102.0473 C58.8522,96.70042 48.1529,91.486778 36.2046,91.486778 C23.6206,91.486778 12.9941,95.32981 6.6258,100.61486 Z M71.5247,102.0473 L71.5247,20.8258 C76.6881,12.0587 87.376,6.579 100.219,6.579 C112.6,6.579 124.531,12.0249 129.798,20.1302 L129.798,100.61486 C123.463,95.32981 112.803,91.486778 100.219,91.486778 C88.271,91.486778 77.5582,96.70042 71.5247,102.0473 Z" id="Shape"></path>
                </g>
                <g id="Thin-L" transform="translate(296.026000, 845.874600)">
                    <path d="M-3.55271368e-15,103.6091 C-3.55271368e-15,105.0971 1.0612,105.9812 2.4441,105.9812 C3.345,105.9812 4.0683,105.5499 4.9394,104.7248 C11.3685,98.02357 22.4889,94.00206 34.8331,94.01047 C45.8939,94.01047 56.9378,98.6585 64.2942,106.7477 C65.1356,107.6993 65.9477,107.9445 66.8739,107.9445 C67.8002,107.9445 68.6926,107.6273 69.4536,106.7477 C76.882,98.80247 87.854,94.01047 98.915,94.01047 C111.259,94.00206 122.388,98.02357 128.808,104.7248 C129.608,105.5499 130.403,105.9812 131.24,105.9812 C132.687,105.9812 133.748,105.0971 133.748,103.6091 L133.748,18.3303 C133.748,17.1408 133.596,16.6076 132.952,15.6257 C127.251,6.5259 113.656,0 98.881,0 C84.147,0 73.0196,6.3071 66.8739,15.2258 C60.7283,6.3071 49.5291,0 34.8668,0 C20.1005,0 6.4972,6.5259 0.7958,15.6257 C0.1524,16.6076 -3.55271368e-15,17.1408 -3.55271368e-15,18.3303 L-3.55271368e-15,103.6091 Z M3.9501,100.1859 L3.9501,18.3633 C9.3766,9.7027 21.8085,3.8782 34.8668,3.8782 C48.3274,3.8782 59.2054,9.7113 64.8988,19.2609 L64.8988,101.8707 C59.1046,96.37237 47.9257,90.123854 34.8668,90.123854 C21.0459,90.123854 10.066,94.5222 3.9501,100.1859 Z M68.849,101.8707 L68.849,19.2609 C74.5425,9.7113 85.357,3.8782 98.881,3.8782 C111.867,3.8782 124.38,9.7027 129.798,18.3633 L129.798,100.1859 C123.69,94.5222 112.702,90.123854 98.881,90.123854 C85.822,90.123854 74.5796,96.37237 68.849,101.8707 Z" id="Shape"></path>
                </g>
                <g id="Ultralight-L" transform="translate(0.000000, 846.896000)">
                    <path d="M-3.55271368e-15,102.9497 C-3.55271368e-15,103.6362 0.544,104.2746 1.4098,104.2746 C2.0392,104.2746 2.5168,104.0113 3.0389,103.3414 C9.3516,96.18766 21.0538,91.92051 34.1997,91.91598 C45.687,91.91598 57.1834,96.83552 64.6045,105.2221 C65.0192,105.8246 65.5727,105.9405 66.1887,105.9405 C66.8046,105.9405 67.4385,105.7397 67.7729,105.2221 C75.2789,97.00534 86.69,91.91598 98.178,91.91598 C111.324,91.92051 123.021,96.18766 129.339,103.3414 C129.776,104.0113 130.338,104.2746 130.878,104.2746 C131.833,104.2746 132.377,103.6362 132.377,102.9497 L132.377,17.7226 C132.377,16.5073 132.212,16.0517 131.569,15.0956 C125.855,6.1381 112.389,0 98.196,0 C83.2418,0 72.2826,6.501 66.1887,15.6783 C60.0948,6.501 49.0507,0 34.1815,0 C19.9841,0 6.5231,6.1381 0.8087,15.0956 C0.1653,16.0517 -3.55271368e-15,16.5073 -3.55271368e-15,17.7226 L-3.55271368e-15,102.9497 Z M2.5797,99.966 L2.5797,17.4583 C8.0708,8.5132 20.8001,2.4948 34.1815,2.4948 C47.9654,2.4948 58.9339,8.5089 64.8988,18.4593 L64.8988,101.7802 C59.2339,96.20426 47.8094,89.42569 34.1815,89.42569 C19.7272,89.42569 8.5662,94.10846 2.5797,99.966 Z M67.4785,101.7802 L67.4785,18.4593 C73.4436,8.5089 84.323,2.4948 98.196,2.4948 C111.493,2.4948 124.302,8.5132 129.798,17.4583 L129.798,99.966 C123.807,94.10846 112.65,89.42569 98.196,89.42569 C84.568,89.42569 73.054,96.20426 67.4785,101.7802 Z" id="Shape"></path>
                </g>
                <g id="Black-M" transform="translate(2380.928900, 419.372900)">
                    <path d="M5.32907052e-15,87.23982 C5.32907052e-15,93.695 4.3204,97.9 10.6029,97.9 C13.2202,97.9 15.0168,96.9514 18.5755,94.95443 C23.7753,91.83869 28.8978,90.30187 33.9013,90.36446 C39.8215,90.42156 45.1598,92.50293 49.7224,96.5672 C52.7378,99.4459 55.687,100.7674 58.9489,100.7674 C62.2107,100.7674 65.1652,99.4462 68.1754,96.5672 C72.7377,92.50236 78.0763,90.42156 83.9965,90.36446 C89.0001,90.30187 94.1281,91.83869 99.3221,94.95443 C102.8811,96.9514 104.6771,97.9 107.3011,97.9 C113.5771,97.9 117.8971,93.695 117.8971,87.23982 L117.8971,20.9465 C117.8971,19.3377 117.4941,17.789 116.8231,16.5736 C111.2631,6.6803 98.0581,0 83.7462,0 C74.3686,0 65.1334,3.0749 58.9489,8.1784 C52.7644,3.0749 43.5295,0 34.1516,0 C19.8455,0 6.6344,6.6803 1.0743,16.5736 C0.4046,17.789 5.32907052e-15,19.3377 5.32907052e-15,20.9465 L5.32907052e-15,87.23982 Z M17.338,76.17302 L17.338,23.7459 C20.805,19.868 27.3202,17.3382 34.1516,17.3382 C41.1233,17.3382 47.4458,19.8735 50.2799,23.7645 L50.2799,76.46106 C45.4017,74.2504 39.6901,73.0207 34.1516,73.0207 C28.2459,73.0207 22.3512,74.1104 17.338,76.17302 Z M67.6179,76.46106 L67.6179,23.7645 C70.452,19.8735 76.7803,17.3382 83.7462,17.3382 C90.5781,17.3382 97.0981,19.868 100.5601,23.7459 L100.5601,76.17302 C95.5521,74.1104 89.6521,73.0207 83.7462,73.0207 C78.2077,73.0207 72.5019,74.2504 67.6179,76.46106 Z" id="Shape"></path>
                </g>
                <g id="Heavy-M" transform="translate(2085.338900, 420.572100)">
                    <path d="M5.32907052e-15,86.13916 C5.32907052e-15,92.00462 3.9217,95.5817 9.4012,95.5817 C11.7897,95.5817 13.4973,94.6393 16.6635,92.83473 C21.9077,89.60255 27.3743,87.89588 32.7923,87.95592 C38.9855,87.99954 44.7098,90.21544 49.4873,94.5542 C52.2971,97.2156 54.9122,98.3767 57.8297,98.3767 C60.7473,98.3767 63.3811,97.2133 66.1721,94.5542 C70.9519,90.21999 76.6739,87.99954 82.8671,87.95592 C88.2851,87.89588 93.7681,89.60255 98.9961,92.83473 C102.1601,94.6393 103.8701,95.5817 106.2721,95.5817 C111.7381,95.5817 115.6591,92.00462 115.6591,86.13916 L115.6591,19.8561 C115.6591,18.4308 115.3331,17.0861 114.7031,15.9567 C109.4241,6.617 96.7431,0 82.627,0 C72.9499,0 63.721,3.3422 57.8297,8.6586 C51.9384,3.3422 42.7072,0 33.0325,0 C18.9332,0 6.2353,6.617 0.9556,15.9567 C0.3263,17.0861 5.32907052e-15,18.4308 5.32907052e-15,19.8561 L5.32907052e-15,86.13916 Z M15.0997,76.6954 L15.0997,22.2463 C18.6872,17.9349 25.6925,15.0972 33.0325,15.0972 C40.5531,15.0972 47.2977,17.9513 50.2799,22.3393 L50.2799,77.11681 C45.3868,74.48656 39.182,72.8421 33.0325,72.8421 C26.5164,72.8421 20.1547,74.2441 15.0997,76.6954 Z M65.3796,77.11681 L65.3796,22.3393 C68.3617,17.9513 75.1205,15.0972 82.627,15.0972 C89.9651,15.0972 96.9891,17.9349 100.5601,22.2463 L100.5601,76.6954 C95.5211,74.2441 89.1431,72.8421 82.627,72.8421 C76.4775,72.8421 70.2868,74.48656 65.3796,77.11681 Z" id="Shape"></path>
                </g>
                <g id="Bold-M" transform="translate(1789.878900, 421.913400)">
                    <path d="M5.32907052e-15,84.90809 C5.32907052e-15,90.11387 3.4757,92.98843 8.057,92.98843 C10.1894,92.98843 11.7975,92.05308 14.5247,90.46372 C19.8185,87.10128 25.6701,85.20462 31.5518,85.26179 C38.0505,85.29034 44.2064,87.65675 49.2243,92.30243 C51.804,94.7208 54.0454,95.7026 56.5777,95.7026 C59.1101,95.7026 61.3852,94.7157 63.9312,92.30243 C68.9543,87.66701 75.1051,85.29034 81.6037,85.26179 C87.4855,85.20462 93.3661,87.10128 98.6311,90.46372 C101.3531,92.05308 102.9661,92.98843 105.1221,92.98843 C109.6801,92.98843 113.1551,90.11387 113.1551,84.90809 L113.1551,18.6364 C113.1551,17.4165 112.9171,16.3 112.3321,15.2667 C107.3671,6.5464 95.2711,0 81.375,0 C71.363,0 62.1411,3.6415 56.5777,9.1959 C51.0144,3.6415 41.7874,0 31.7805,0 C17.9126,0 5.7888,6.5464 0.8228,15.2667 C0.2388,16.3 5.32907052e-15,17.4165 5.32907052e-15,18.6364 L5.32907052e-15,84.90809 Z M12.5958,77.27994 L12.5958,20.569 C16.3182,15.7726 23.8716,12.5906 31.7805,12.5906 C39.9153,12.5906 47.1322,15.8012 50.2799,20.7451 L50.2799,77.85054 C45.3702,74.75095 38.6136,72.6426 31.7805,72.6426 C24.5817,72.6426 17.6976,74.39379 12.5958,77.27994 Z M62.8757,77.85054 L62.8757,20.7451 C66.0234,15.8012 73.2637,12.5906 81.375,12.5906 C89.2791,12.5906 96.8661,15.7726 100.5601,20.569 L100.5601,77.27994 C95.4871,74.39379 88.5741,72.6426 81.375,72.6426 C74.542,72.6426 67.8088,74.75095 62.8757,77.85054 Z" id="Shape"></path>
                </g>
                <g id="Semibold-M" transform="translate(1494.028900, 422.838200)">
                    <path d="M5.32907052e-15,84.05928 C5.32907052e-15,88.81028 3.1682,91.20054 7.1303,91.20054 C9.0862,91.20054 10.6256,90.27005 13.0502,88.82904 C18.3782,85.37681 24.4952,83.34915 30.6966,83.40435 C37.4058,83.42251 43.8594,85.89268 49.043,90.74998 C51.4641,93.0008 53.4479,93.859 55.7146,93.859 C57.9815,93.859 60.0093,92.9937 62.3863,90.74998 C67.5771,85.90689 74.0235,83.42251 80.7328,83.40435 C86.9342,83.34915 93.0881,85.37681 98.3791,88.82904 C100.7971,90.27005 102.3431,91.20054 104.3291,91.20054 C108.2611,91.20054 111.4291,88.81028 111.4291,84.05928 L111.4291,17.7955 C111.4291,16.7172 111.2511,15.7579 110.6981,14.791 C105.9481,6.4975 94.2571,0 80.5119,0 C70.2689,0 61.0519,3.8477 55.7146,9.5662 C50.3775,3.8477 41.1533,0 30.9174,0 C17.209,0 5.481,6.4975 0.7313,14.791 C0.1784,15.7579 5.32907052e-15,16.7172 5.32907052e-15,17.7955 L5.32907052e-15,84.05928 Z M10.8696,77.6828 L10.8696,19.4125 C14.685,14.2818 22.6163,10.8624 30.9174,10.8624 C39.4756,10.8624 47.018,14.3189 50.2799,19.646 L50.2799,78.35626 C45.3587,74.93311 38.2217,72.50485 30.9174,72.50485 C23.2479,72.50485 16.0036,74.4969 10.8696,77.6828 Z M61.1495,78.35626 L61.1495,19.646 C64.4114,14.3189 71.9837,10.8624 80.5119,10.8624 C88.8061,10.8624 96.7811,14.2818 100.5601,19.4125 L100.5601,77.6828 C95.4631,74.4969 88.1811,72.50485 80.5119,72.50485 C73.2076,72.50485 66.1006,74.93311 61.1495,78.35626 Z" id="Shape"></path>
                </g>
                <g id="Medium-M" transform="translate(1197.968900, 423.539400)">
                    <path d="M5.32907052e-15,83.41571 C5.32907052e-15,87.82187 2.935,89.84491 6.4276,89.84491 C8.2497,89.84491 9.7371,88.9181 11.9322,87.58958 C17.2861,84.06926 23.6043,81.942289 30.0481,81.995991 C36.917,82.006269 43.5963,84.55511 48.9056,89.57287 C51.2064,91.6967 52.9948,92.4611 55.0602,92.4611 C57.1257,92.4611 58.9661,91.6881 61.2149,89.57287 C66.5328,84.57231 73.2035,82.006269 80.0724,81.995991 C86.5162,81.942289 92.8781,84.06926 98.1881,87.58958 C100.3751,88.9181 101.8711,89.84491 103.7281,89.84491 C107.1851,89.84491 110.1201,87.82187 110.1201,83.41571 L110.1201,17.1579 C110.1201,16.1869 109.9881,15.3469 109.4581,14.4302 C104.8731,6.4605 93.4881,0 79.8575,0 C69.4394,0 60.226,4.004 55.0602,9.8471 C49.8945,4.004 40.6725,0 30.263,0 C16.6756,0 5.2476,6.4605 0.6619,14.4302 C0.1326,15.3469 5.32907052e-15,16.1869 5.32907052e-15,17.1579 L5.32907052e-15,83.41571 Z M9.5607,77.98829 L9.5607,18.5357 C13.4467,13.1515 21.6645,9.552 30.263,9.552 C39.1422,9.552 46.9315,13.1949 50.2799,18.8127 L50.2799,78.73973 C45.35,75.07125 37.9246,72.40046 30.263,72.40046 C22.2366,72.40046 14.7192,74.5751 9.5607,77.98829 Z M59.8406,78.73973 L59.8406,18.8127 C63.1891,13.1949 71.0131,9.552 79.8575,9.552 C88.4471,9.552 96.7171,13.1515 100.5601,18.5357 L100.5601,77.98829 C95.4451,74.5751 87.8841,72.40046 79.8575,72.40046 C72.1959,72.40046 64.8053,75.07125 59.8406,78.73973 Z" id="Shape"></path>
                </g>
                <g id="Regular-M" transform="translate(902.118900, 424.454000)">
                    <path d="M79.0039,0 C92.4851,0 103.4701,6.4123 107.8421,13.9598 C108.3401,14.8108 108.4131,15.4952 108.4131,16.3262 L108.412882,47.6500222 C108.096938,47.2226136 107.764935,46.8131472 107.417973,46.4221764 C105.552703,44.3203172 103.239687,42.7107819 100.560964,41.7212565 L100.5601,17.392 C96.6341,11.6771 87.9801,7.8428 79.0039,7.8428 C69.7472,7.8428 61.5948,11.7288 58.1334,17.7257 L58.1334,79.23993 C61.5141127,76.533616 66.1738286,74.2883324 71.3594483,73.124431 L71.3593194,81.2820731 C67.1132851,82.5232348 63.111689,84.7863474 59.687,88.03751 C57.6053,89.98505 56.0095,90.6377 54.2066,90.6377 C52.4038,90.6377 50.8703,89.9956 48.7263,88.03751 C43.2531,82.81046 36.2795,80.159007 29.2023,80.159007 C22.4424,80.107255 15.8617,82.36378 10.4739,85.9729 C8.5781,87.15469 7.1586,88.07671 5.511,88.07671 C2.6309,88.07671 0,86.53264 0,82.57626 L0,16.3262 C0,15.4952 0.0729,14.8108 0.5714,13.9598 C4.9432,6.4123 15.9797,0 29.4094,0 C40.0454,0 49.2645,4.208 54.2066,10.2133 C59.1488,4.208 68.3573,0 79.0039,0 Z M29.4094,7.8428 C20.423,7.8428 11.8314,11.6771 7.8535,17.392 L7.8535,78.38676 C13.0439,74.67711 20.9174,72.26431 29.4094,72.26431 C37.5371,72.26431 45.3387,75.25144 50.2799,79.23993 L50.2799,17.7257 C46.8186,11.7288 38.7073,7.8428 29.4094,7.8428 Z" id="Combined-Shape"></path>
                    <path d="M76.3591,91.10237 C76.3591,94.7381 78.0107,96.4827 81.3762,96.4827 L106.6394,96.4827 C110.0564,96.4827 111.6564,94.7381 111.6564,91.10237 L111.6564,71.6804 C111.6564,68.2411 110.2114,66.5484 107.3534,66.3412 L107.3534,60.6043 C107.3534,51.6047 101.9544,45.5948 94.0334,45.5948 C86.05,45.5948 80.7034,51.6047 80.7034,60.6043 L80.7034,66.3412 C77.8037,66.5484 76.3591,68.2411 76.3591,71.6804 C76.3591,81.391385 76.3591,81.391385 76.3591,91.10237 Z M85.7727,66.2895 L85.7727,60.035 C85.7727,54.3422 89.0874,50.5089 94.0334,50.5089 C98.9694,50.5089 102.2324,54.3422 102.2324,60.035 L102.2324,66.2895 L85.7727,66.2895 Z" id="Shape"></path>
                </g>
                <g id="Light-M" transform="translate(606.308900, 425.805700)">
                    <path d="M5.32907052e-15,81.70367 C5.32907052e-15,84.59917 1.9465,85.81813 4.1422,85.81813 C5.4303,85.81813 6.5248,85.11855 7.9586,84.1421 C13.1924,79.934086 20.543,77.35247 28.3639,77.3871 C36.0057,77.3871 43.5782,80.39788 49.1369,86.01848 C50.7163,87.51458 51.9076,87.98561 53.2997,87.98561 C54.6919,87.98561 55.9455,87.48691 57.4626,86.01848 C63.049,80.45321 70.5938,77.3871 78.2356,77.3871 C86.0565,77.35247 93.4421,79.934086 98.6411,84.1421 C100.0471,85.11855 101.1691,85.81813 102.4641,85.81813 C104.6531,85.81813 106.5991,84.59917 106.5991,81.70367 L106.5991,15.5221 C106.5991,14.6569 106.5091,14.0751 106.0111,13.2582 C101.6221,5.899 90.8081,0 78.097,0 C67.1596,0 58.1735,4.4647 53.2997,10.8123 C48.426,4.4647 39.4123,0 28.5025,0 C15.8257,0 4.9774,5.899 0.5885,13.2582 C0.09,14.0751 5.32907052e-15,14.6569 5.32907052e-15,15.5221 L5.32907052e-15,81.70367 Z M6.0397,78.09594 L6.0397,16.1943 C10.1032,10.1029 19.0883,6.012 28.5025,6.012 C38.2282,6.012 46.4592,10.1376 50.2799,16.6648 L50.2799,79.120213 C45.5098,75.02905 37.3831,71.3404 28.5025,71.3404 C19.1721,71.3404 11.059,74.12964 6.0397,78.09594 Z M56.3196,79.120213 L56.3196,16.6648 C60.1403,10.1376 68.3783,6.012 78.097,6.012 C87.4836,6.012 96.5311,10.1029 100.5601,16.1943 L100.5601,78.09594 C95.5751,74.12964 87.4274,71.3404 78.097,71.3404 C69.2164,71.3404 61.0967,75.02905 56.3196,79.120213 Z" id="Shape"></path>
                </g>
                <g id="Thin-M" transform="translate(310.799900, 427.593500)">
                    <path d="M-8.8817842e-15,80.54953 C-8.8817842e-15,82.04193 1.0413,82.83091 2.3317,82.83091 C3.1446,82.83091 3.8091,82.42553 4.6318,81.72065 C9.662,76.720557 18.031,73.70897 27.2551,73.72096 C35.6436,73.72096 44.0081,77.206987 49.6801,83.34808 C50.5126,84.23316 51.2513,84.47789 52.1003,84.47789 C52.9494,84.47789 53.7503,84.18286 54.5206,83.34808 C60.2428,77.307572 68.5571,73.72096 76.9457,73.72096 C86.1697,73.70897 94.5511,76.720557 99.5691,81.72065 C100.3411,82.42553 101.0561,82.83091 101.8311,82.83091 C103.1591,82.83091 104.2011,82.04193 104.2011,80.54953 L104.2011,14.4585 C104.2011,13.548 104.0881,13.1021 103.5901,12.3304 C99.1781,5.2202 88.5911,0 76.8976,0 C65.5754,0 56.8835,4.8042 52.1003,11.6044 C47.3171,4.8042 38.5749,0 27.3031,0 C15.622,0 5.0227,5.2202 0.6111,12.3304 C0.1126,13.1021 -8.8817842e-15,13.548 -8.8817842e-15,14.4585 L-8.8817842e-15,80.54953 Z M3.6409,77.711237 L3.6409,14.6101 C7.8176,8.0209 17.3232,3.5905 27.3031,3.5905 C37.5946,3.5905 45.984,8.033 50.2799,15.2617 L50.2799,78.96181 C45.7361,74.73487 37.1794,70.1184 27.3031,70.1184 C16.8638,70.1184 8.4338,73.4055 3.6409,77.711237 Z M53.9208,78.96181 L53.9208,15.2617 C58.2168,8.033 66.5678,3.5905 76.8976,3.5905 C86.8273,3.5905 96.3951,8.0209 100.5601,14.6101 L100.5601,77.711237 C95.7791,73.4055 87.3369,70.1184 76.8976,70.1184 C67.0212,70.1184 58.4262,74.73487 53.9208,78.96181 Z" id="Shape"></path>
                </g>
                <g id="Ultralight-M" transform="translate(14.702900, 428.509200)">
                    <path d="M-1.77635684e-15,79.95839 C-1.77635684e-15,80.73213 0.5776,81.30087 1.4044,81.30087 C1.9739,81.30087 2.4181,81.04618 2.9279,80.48039 C7.8538,75.07461 16.7444,71.84279 26.6871,71.84319 C35.4581,71.84319 44.2283,75.572627 49.9582,81.98032 C50.4083,82.55243 50.9151,82.68125 51.486,82.68125 C52.0568,82.68125 52.626,82.49055 53.0137,81.98032 C58.8055,75.696395 67.5138,71.84319 76.285,71.84319 C86.2277,71.84279 95.1191,75.07461 100.0441,80.48039 C100.4921,81.04618 100.9981,81.30087 101.5061,81.30087 C102.3941,81.30087 102.9721,80.73213 102.9721,79.95839 L102.9721,13.9138 C102.9721,12.98 102.8481,12.6037 102.3491,11.8551 C97.9261,4.8724 87.4548,0 76.2833,0 C64.764,0 56.2228,4.9781 51.486,12.0101 C46.7492,4.9781 38.1461,0 26.6887,0 C15.5177,0 5.0459,4.8724 0.6227,11.8551 C0.1242,12.6037 -1.77635684e-15,12.98 -1.77635684e-15,13.9138 L-1.77635684e-15,79.95839 Z M2.4122,77.514197 L2.4122,13.7988 C6.6469,6.9545 16.4191,2.3503 26.6887,2.3503 C37.2701,2.3503 45.7406,6.955 50.2799,14.5431 L50.2799,78.88068 C45.852,74.58419 37.0751,69.49249 26.6887,69.49249 C15.6815,69.49249 7.0892,73.0346 2.4122,77.514197 Z M52.6921,78.88068 L52.6921,14.5431 C57.2315,6.955 65.6405,2.3503 76.2833,2.3503 C86.4912,2.3503 96.3251,6.9545 100.5601,13.7988 L100.5601,77.514197 C95.8831,73.0346 87.2906,69.49249 76.2833,69.49249 C65.8969,69.49249 57.0585,74.58419 52.6921,78.88068 Z" id="Shape"></path>
                </g>
                <g id="Black-S" transform="translate(2393.393620, 0.000000)">
                    <path d="M1.77635684e-15,68.65232 C1.77635684e-15,73.8281 3.46678,77.29489 8.59378,77.29489 C10.69338,77.29489 12.10938,76.56247 14.99028,74.9511438 C19.04298,72.50974 22.99808,71.33786 26.85548,71.38669 C31.44528,71.43552 35.54688,73.04685 39.06248,76.17185 C41.45508,78.46677 43.84768,79.54099 46.48438,79.54099 C49.12108,79.54099 51.51368,78.46677 53.90628,76.17185 C57.42188,73.04685 61.52348,71.43552 66.11328,71.38669 C69.97068,71.33786 73.92578,72.50974 77.97848,74.9511438 C80.85938,76.56247 82.27538,77.29489 84.37498,77.29489 C89.50198,77.29489 92.96838,73.8281 92.96838,68.65232 L92.96838,16.6992 C92.96838,15.3808 92.62738,14.1113 92.08938,13.1347 C87.64648,5.2246 77.14848,0 65.91798,0 C58.64258,0 51.41598,2.3437 46.48438,6.2988 C41.55278,2.3437 34.32618,0 27.05078,0 C15.82028,0 5.32228,5.2246 0.87888,13.1347 C0.34178,14.1113 1.77635684e-15,15.3808 1.77635684e-15,16.6992 L1.77635684e-15,68.65232 Z M14.16018,59.5215 L14.16018,18.9941 C16.84568,16.0644 21.82618,14.1601 27.05078,14.1601 C32.37308,14.1601 37.20708,16.0644 39.40428,18.9941 L39.40428,59.7168 C35.59568,58.1054 31.24998,57.2265 27.05078,57.2265 C22.55858,57.2265 18.06638,58.0078 14.16018,59.5215 Z M53.56448,59.7168 L53.56448,18.9941 C55.76168,16.0644 60.59568,14.1601 65.91798,14.1601 C71.14258,14.1601 76.12308,16.0644 78.80858,18.9941 L78.80858,59.5215 C74.90238,58.0078 70.41018,57.2265 65.91798,57.2265 C61.71878,57.2265 57.37308,58.1054 53.56448,59.7168 Z" id="Shape"></path>
                </g>
                <g id="Heavy-S" transform="translate(2097.523620, 0.852800)">
                    <path d="M1.77635684e-15,67.82257 C1.77635684e-15,72.62956 3.21328,75.6008 7.74098,75.6008 C9.69078,75.6008 11.07218,74.845335 13.67648,73.372302 C17.78678,70.90785 21.93778,69.63225 26.01418,69.68108 C30.76538,69.71838 35.12048,71.39886 38.80898,74.708253 C41.09778,76.8764 43.24838,77.83538 45.64308,77.83538 C48.03778,77.83538 50.19988,76.8764 52.47728,74.708253 C56.16568,71.39886 60.52088,69.71838 65.27198,69.68108 C69.34838,69.63225 73.51088,70.90785 77.60968,73.372302 C80.21398,74.845335 81.59548,75.6008 83.55678,75.6008 C88.07298,75.6008 91.28638,72.62956 91.28638,67.82257 L91.28638,15.8694 C91.28638,14.7124 91.01338,13.6042 90.51038,12.6968 C86.30968,5.2361 76.23798,0 65.07668,0 C57.58228,0 50.33268,2.5396 45.64308,6.633 C40.95348,2.5396 33.70388,0 26.20948,0 C15.05968,0 4.97658,5.2361 0.77518,12.6968 C0.27268,13.6042 1.77635684e-15,14.7124 1.77635684e-15,15.8694 L1.77635684e-15,67.82257 Z M12.47758,60.0055 L12.47758,17.8647 C15.25528,14.6123 20.60458,12.4775 26.20948,12.4775 C31.94668,12.4775 37.12638,14.6239 39.40428,17.9108 L39.40428,60.293 C35.56108,58.3359 30.83508,57.1919 26.20948,57.1919 C21.30238,57.1919 16.44148,58.1922 12.47758,60.0055 Z M51.88188,60.293 L51.88188,17.9108 C54.15978,14.6239 59.35108,12.4775 65.07668,12.4775 C70.68158,12.4775 76.04238,14.6123 78.80858,17.8647 L78.80858,60.0055 C74.85628,58.1922 69.98378,57.1919 65.07668,57.1919 C60.45108,57.1919 55.73658,58.3359 51.88188,60.293 Z" id="Shape"></path>
                </g>
                <g id="Bold-S" transform="translate(1801.753620, 1.806600)">
                    <path d="M1.77635684e-15,66.89455 C1.77635684e-15,71.28908 2.92968,73.706065 6.78708,73.706065 C8.56928,73.706065 9.91208,72.924815 12.20708,71.60646 C16.38178,69.11623 20.75198,67.72462 25.07318,67.77345 C30.00488,67.79786 34.64358,69.55568 38.52538,73.071305 C40.69818,75.09767 42.57818,75.92775 44.70218,75.92775 C46.82618,75.92775 48.73048,75.09767 50.87888,73.071305 C54.76068,69.55568 59.39938,67.79786 64.33108,67.77345 C68.65238,67.72462 73.04688,69.11623 77.19728,71.60646 C79.49218,72.924815 80.83498,73.706065 82.64158,73.706065 C86.47468,73.706065 89.40408,71.28908 89.40408,66.89455 L89.40408,14.9414 C89.40408,13.9648 89.20918,13.0371 88.74488,12.2071 C84.81448,5.249 75.21978,0 64.13568,0 C56.39648,0 49.12108,2.7588 44.70218,7.0069 C40.28328,2.7588 33.00788,0 25.26858,0 C14.20898,0 4.58988,5.249 0.65918,12.2071 C0.1953,13.0371 1.77635684e-15,13.9648 1.77635684e-15,14.9414 L1.77635684e-15,66.89455 Z M10.59578,60.5469 L10.59578,16.6016 C13.47658,12.9883 19.23828,10.5957 25.26858,10.5957 C31.46978,10.5957 37.03618,13.0127 39.40428,16.6992 L39.40428,60.9375 C35.52238,58.5937 30.37108,57.1533 25.26858,57.1533 C19.89748,57.1533 14.62398,58.3984 10.59578,60.5469 Z M50.00008,60.9375 L50.00008,16.6992 C52.36818,13.0127 57.95898,10.5957 64.13568,10.5957 C70.16598,10.5957 75.95218,12.9883 78.80858,16.6016 L78.80858,60.5469 C74.80478,58.3984 69.50688,57.1533 64.13568,57.1533 C59.03318,57.1533 53.90628,58.5937 50.00008,60.9375 Z" id="Shape"></path>
                </g>
                <g id="Semibold-S" transform="translate(1505.693620, 2.464300)">
                    <path d="M1.77635684e-15,66.25462 C1.77635684e-15,70.36477 2.73418,72.399635 6.12948,72.399635 C7.79618,72.399635 9.11238,71.600611 11.19398,70.38889 C15.41318,67.88089 19.93438,66.4093 24.42448,66.45813 C29.48058,66.47366 34.31478,68.2848 38.32988,71.942609 C40.42278,73.87122 42.11598,74.61243 44.05338,74.61243 C45.99088,74.61243 47.71738,73.87122 49.77698,71.942609 C53.79208,68.2848 58.62628,66.47366 63.68238,66.45813 C68.17248,66.4093 72.72698,67.88089 76.91288,70.38889 C78.99448,71.600611 80.31068,72.399635 82.01058,72.399635 C85.37268,72.399635 88.10678,70.36477 88.10678,66.25462 L88.10678,14.3015 C88.10678,13.4493 87.96498,12.646 87.52748,11.8693 C83.78358,5.2579 74.51768,0 63.48698,0 C55.57888,0 48.28578,2.9098 44.05338,7.2645 C39.82108,2.9098 32.52798,0 24.61988,0 C13.62248,0 4.32318,5.2579 0.57918,11.8693 C0.14199,12.646 1.77635684e-15,13.4493 1.77635684e-15,14.3015 L1.77635684e-15,66.25462 Z M9.29828,60.9201 L9.29828,15.7306 C12.25018,11.8685 18.29628,9.2982 24.61988,9.2982 C31.14088,9.2982 36.97398,11.9018 39.40428,15.8638 L39.40428,61.3818 C35.49578,58.7714 30.05118,57.1266 24.61988,57.1266 C18.92888,57.1266 13.37098,58.5405 9.29828,60.9201 Z M48.70258,61.3818 L48.70258,15.8638 C51.13288,11.9018 56.99918,9.2982 63.48698,9.2982 C69.81058,9.2982 75.88998,11.8685 78.80858,15.7306 L78.80858,60.9201 C74.76918,58.5405 69.17798,57.1266 63.48698,57.1266 C58.05568,57.1266 52.64438,58.7714 48.70258,61.3818 Z" id="Shape"></path>
                </g>
                <g id="Medium-S" transform="translate(1209.473620, 2.962900)">
                    <path d="M1.77635684e-15,65.76949 C1.77635684e-15,69.66402 2.58598,71.409141 5.63088,71.409141 C7.20998,71.409141 8.50588,70.59664 10.42588,69.46578 C14.67868,66.9443 19.31448,65.41207 23.93258,65.4609 C29.08298,65.46969 34.06548,67.32126 38.18168,71.08688 C40.21388,72.941369 41.76558,73.6152 43.56148,73.6152 C45.35748,73.6152 46.94928,72.941369 48.94138,71.08688 C53.05758,67.32126 58.04008,65.46969 63.19048,65.4609 C67.80858,65.41207 72.48438,66.9443 76.69728,69.46578 C78.61718,70.59664 79.91308,71.409141 81.53218,71.409141 C84.53708,71.409141 87.12298,69.66402 87.12298,65.76949 L87.12298,13.8163 C87.12298,13.0586 87.02158,12.3495 86.60438,11.6133 C83.00188,5.2646 73.98538,0 62.99508,0 C54.95898,0 47.65238,3.0244 43.56148,7.4599 C39.47068,3.0244 32.16408,0 24.12798,0 C13.17778,0 4.12108,5.2646 0.51858,11.6133 C0.10156,12.3495 1.77635684e-15,13.0586 1.77635684e-15,13.8163 L1.77635684e-15,65.76949 Z M8.31448,61.2031 L8.31448,15.0702 C11.32028,11.0195 17.58198,8.3144 24.12798,8.3144 C30.89158,8.3144 36.92678,11.0595 39.40428,15.2305 L39.40428,61.7187 C35.47558,58.9062 29.80858,57.1064 24.12798,57.1064 C18.19438,57.1064 12.42088,58.6484 8.31448,61.2031 Z M47.71878,61.7187 L47.71878,15.2305 C50.19628,11.0595 56.27148,8.3144 62.99508,8.3144 C69.54108,8.3144 75.84278,11.0195 78.80858,15.0702 L78.80858,61.2031 C74.74228,58.6484 68.92868,57.1064 62.99508,57.1064 C57.31448,57.1064 51.68748,58.9062 47.71878,61.7187 Z" id="Shape"></path>
                </g>
                <g id="Regular-S" transform="translate(913.403620, 3.613300)">
                    <path d="M1.77635684e-15,65.13667 C1.77635684e-15,68.74995 2.39258,70.11714 4.98048,70.11714 C6.44528,70.11714 7.71488,69.28706 9.42388,68.26167 C13.72068,65.72261 18.50588,64.11128 23.29098,64.16011 C28.56448,64.16011 33.74028,66.06441 37.98828,69.97066 C39.94138,71.728469 41.30858,72.314406 42.91988,72.314406 C44.53128,72.314406 45.94728,71.728469 47.85158,69.97066 C52.09958,66.06441 57.27538,64.16011 62.54888,64.16011 C67.33398,64.11128 72.16798,65.72261 76.41598,68.26167 C78.12498,69.28706 79.39458,70.11714 80.90818,70.11714 C83.44728,70.11714 85.83988,68.74995 85.83988,65.13667 L85.83988,13.1835 C85.83988,12.5488 85.79098,11.9628 85.40038,11.2793 C81.98238,5.2734 73.29098,0 62.35348,0 C54.15038,0 46.82618,3.1738 42.91988,7.7148 C39.01368,3.1738 31.68948,0 23.48638,0 C12.59768,0 3.85738,5.2734 0.43948,11.2793 C0.04883,11.9628 1.77635684e-15,12.5488 1.77635684e-15,13.1835 L1.77635684e-15,65.13667 Z M7.03128,61.57222 L7.03128,14.2089 C10.10738,9.9121 16.65038,7.0312 23.48638,7.0312 C30.56638,7.0312 36.86528,9.9609 39.40428,14.4043 L39.40428,62.15816 C35.44918,59.082 29.49218,57.08 23.48638,57.08 C17.23638,57.08 11.18168,58.789 7.03128,61.57222 Z M46.43558,62.15816 L46.43558,14.4043 C48.97458,9.9609 55.32228,7.0312 62.35348,7.0312 C69.18948,7.0312 75.78128,9.9121 78.80858,14.2089 L78.80858,61.57222 C74.70708,58.789 68.60348,57.08 62.35348,57.08 C56.34768,57.08 50.43948,59.082 46.43558,62.15816 Z" id="Shape"></path>
                </g>
                <g id="Light-S" transform="translate(617.493620, 4.809100)">
                    <path d="M1.77635684e-15,64.3647 C1.77635684e-15,67.03951 1.78708,68.1191 3.76958,68.1191 C4.91648,68.1191 5.89848,67.4858 7.19878,66.64205 C11.35938,63.5732 16.82568,61.67429 22.54928,61.70797 C28.32228,61.70797 34.02788,63.93014 38.35158,68.18453 C39.80518,69.533653 40.86958,69.968224 42.11768,69.968224 C43.36578,69.968224 44.47898,69.518516 45.88378,68.18453 C50.22268,63.96041 55.91308,61.70797 61.68608,61.70797 C67.40968,61.67429 72.90968,63.5732 77.03658,66.64205 C78.32178,67.4858 79.31888,68.1191 80.48438,68.1191 C82.44828,68.1191 84.23538,67.03951 84.23538,64.3647 L84.23538,12.4721 C84.23538,11.8071 84.17138,11.3119 83.78078,10.6587 C80.34768,4.8193 71.80758,0 61.55128,0 C53.09078,0 45.96338,3.4008 42.11768,8.2446 C38.27198,3.4008 31.12938,0 22.68408,0 C12.46148,0 3.88768,4.8193 0.45458,10.6587 C0.06397,11.3119 1.77635684e-15,11.8071 1.77635684e-15,12.4721 L1.77635684e-15,64.3647 Z M5.42678,61.31489 L5.42678,13.1493 C8.57858,8.5195 15.46978,5.4116 22.68408,5.4116 C30.14258,5.4116 36.54738,8.5532 39.40428,13.4658 L39.40428,62.05219 C35.60058,58.8852 29.35598,56.2626 22.68408,56.2626 C15.69248,56.2626 9.42578,58.3046 5.42678,61.31489 Z M44.83108,62.05219 L44.83108,13.4658 C47.68798,8.5532 54.11138,5.4116 61.55128,5.4116 C68.75048,5.4116 75.69048,8.5195 78.80858,13.1493 L78.80858,61.31489 C74.84328,58.3046 68.54298,56.2626 61.55128,56.2626 C54.87938,56.2626 48.65338,58.8852 44.83108,62.05219 Z" id="Shape"></path>
                </g>
                <g id="Thin-S" transform="translate(321.843620, 6.390600)">
                    <path d="M1.77635684e-15,63.34374 C1.77635684e-15,64.77735 0.98638,65.47657 2.16798,65.47657 C2.89448,65.47657 3.49618,65.10352 4.25588,64.5 C8.23638,60.73048 14.60358,58.4512 21.56838,58.4649 C28.00198,58.4649 34.40818,61.10744 38.83198,65.82227 C39.62498,66.63087 40.28908,66.86525 41.05658,66.86525 C41.82428,66.86525 42.53708,66.59572 43.28128,65.82227 C47.74028,61.17775 54.11128,58.4649 60.54498,58.4649 C67.50978,58.4512 73.89068,60.73048 77.85738,64.5 C78.58208,65.10352 79.21878,65.47657 79.92388,65.47657 C81.12698,65.47657 82.11328,64.77735 82.11328,63.34374 L82.11328,11.5313 C82.11328,10.8262 82.02928,10.4512 81.63868,9.8379 C78.18558,4.2188 69.84578,0 60.49018,0 C51.68948,0 44.82228,3.7011 41.05658,8.9453 C37.29098,3.7011 30.38868,0 21.62308,0 C12.28128,0 3.92778,4.2188 0.47458,9.8379 C0.08399,10.4512 1.77635684e-15,10.8262 1.77635684e-15,11.5313 L1.77635684e-15,63.34374 Z M3.30468,60.97459 L3.30468,11.748 C6.55668,6.6777 13.90828,3.2695 21.62308,3.2695 C29.58208,3.2695 36.12698,6.6914 39.40428,12.2246 L39.40428,61.91209 C35.80078,58.625 29.17578,55.1816 21.62308,55.1816 C13.65048,55.1816 7.10358,57.6641 3.30468,60.97459 Z M42.70898,61.91209 L42.70898,12.2246 C45.98638,6.6914 52.50978,3.2695 60.49018,3.2695 C68.16998,3.2695 75.57028,6.6777 78.80858,11.748 L78.80858,60.97459 C75.02338,57.6641 68.46288,55.1816 60.49018,55.1816 C52.93748,55.1816 46.29108,58.625 42.70898,61.91209 Z" id="Shape"></path>
                </g>
                <g id="Ultralight-S" transform="translate(25.675620, 7.200600)">
                    <path d="M1.77635684e-15,62.82085 C1.77635684e-15,63.61872 0.57618,64.12312 1.34768,64.12312 C1.85888,64.12312 2.26568,63.88337 2.74858,63.4029 C6.63678,59.27449 13.46538,56.8004 21.06598,56.8038 C27.83788,56.8038 34.60298,59.6617 39.07808,64.61237 C39.53268,65.14412 39.99168,65.27596 40.51318,65.27596 C41.03468,65.27596 41.54248,65.09871 41.94828,64.61237 C46.46878,59.75252 53.18848,56.8038 59.96048,56.8038 C67.56108,56.8004 74.39308,59.27449 78.27778,63.4029 C78.71538,63.88337 79.16748,64.12312 79.63678,64.12312 C80.45018,64.12312 81.02638,63.61872 81.02638,62.82085 L81.02638,11.0494 C81.02638,10.3238 80.93218,10.0103 80.54158,9.4175 C77.07818,3.9112 68.84088,0 59.94678,0 C50.97168,0 44.23778,3.855 40.51318,9.3042 C36.78858,3.855 30.00928,0 21.07958,0 C12.18898,0 3.94828,3.9112 0.48488,9.4175 C0.09424,10.0103 1.77635684e-15,10.3238 1.77635684e-15,11.0494 L1.77635684e-15,62.82085 Z M2.21778,60.80033 L2.21778,11.0303 C5.52108,5.7344 13.10848,2.1724 21.07958,2.1724 C29.29498,2.1724 35.91168,5.7379 39.40428,11.5889 L39.40428,61.84036 C35.90328,58.49173 29.08348,54.628 21.07958,54.628 C12.60458,54.628 5.91408,57.336 2.21778,60.80033 Z M41.62208,61.84036 L41.62208,11.5889 C45.11478,5.7379 51.68948,2.1724 59.94678,2.1724 C67.87258,2.1724 75.50878,5.7344 78.80858,11.0303 L78.80858,60.80033 C75.11568,57.336 68.42188,54.628 59.94678,54.628 C51.94288,54.628 45.08108,58.49173 41.62208,61.84036 Z" id="Shape"></path>
                </g>
            </g>
        </g>
    </g>
</svg>